<?xml version="1.0" encoding="UTF-8" standalone="no"?>
<!-- Created with Inkscape (http://www.inkscape.org/) -->

<svg
   width="114.82256mm"
   height="67.215942mm"
   viewBox="0 0 114.82256 67.215943"
   version="1.1"
   id="svg5"
   inkscape:version="1.1 (c68e22c387, 2021-05-23)"
   sodipodi:docname="validactylus.svg"
   xmlns:inkscape="http://www.inkscape.org/namespaces/inkscape"
   xmlns:sodipodi="http://sodipodi.sourceforge.net/DTD/sodipodi-0.dtd"
   xmlns="http://www.w3.org/2000/svg"
   xmlns:svg="http://www.w3.org/2000/svg">
  <sodipodi:namedview
     id="namedview7"
     pagecolor="#ffffff"
     bordercolor="#666666"
     borderopacity="1.0"
     inkscape:pageshadow="2"
     inkscape:pageopacity="0.0"
     inkscape:pagecheckerboard="0"
     inkscape:document-units="mm"
     showgrid="false"
     inkscape:zoom="2.4088664"
     inkscape:cx="218.7751"
     inkscape:cy="103.78326"
     inkscape:window-width="3072"
     inkscape:window-height="1661"
     inkscape:window-x="-9"
     inkscape:window-y="-9"
     inkscape:window-maximized="1"
     inkscape:current-layer="layer1"
     inkscape:snap-global="false" />
  <defs
     id="defs2" />
  <g
     inkscape:label="Ebene 1"
     inkscape:groupmode="layer"
     id="layer1"
     transform="translate(-8.5672806,-84.990537)">
    <g
       id="g52133">
      <path
         style="fill:#cccccc;fill-opacity:1;stroke:none;stroke-width:0.264583px;stroke-linecap:butt;stroke-linejoin:miter;stroke-opacity:1"
         d="m 62.599347,121.62603 -10.174335,22.44567 3.184334,2.64067 7.611335,-5.43667 5.281335,-10.56267 6.990001,-1.78633 -3.650334,-13.04801"
         id="path39899" />
      <text
         xml:space="preserve"
         style="font-style:normal;font-weight:normal;font-size:45.1107px;line-height:1.25;font-family:sans-serif;fill:#000000;fill-opacity:1;stroke:none;stroke-width:1.12777"
         x="124.01633"
         y="98.671631"
         id="text2343"
         transform="matrix(0.81488604,0.24854835,-0.5032139,1.0736802,0,0)"><tspan
           sodipodi:role="line"
           id="tspan2341"
           style="stroke-width:1.12777"
           x="124.01633"
           y="98.671631">}</tspan></text>
      <path
         id="path7222"
         style="color:#000000;fill:#cccccc;stroke-width:3.77953;-inkscape-stroke:none"
         d="m 271.35352,321.22656 c -5.23953,0.18533 -0.57165,10.34095 22.49218,37.16992 -0.79586,5.41643 -22.05507,25.3309 -23.92382,23.2129 -12.21974,-4.22407 -23.9139,-27.54016 -35.80274,3.79492 -5.00553,13.19293 -15.04461,14.13265 -35.44336,21.68554 -43.69457,5.76745 -71.69973,-6.9039 -120.167968,-4.81836 l -32.953124,-9.01367 c -1.073995,-0.29329 -2.181932,0.34131 -2.472657,1.41602 -0.289776,1.07032 0.3408,2.17343 1.410157,2.46679 l 13.376953,3.66016 -19.814453,-1.4082 c -1.105336,-0.0767 -2.064793,0.75443 -2.146485,1.85937 -0.07774,1.10892 0.758266,2.07085 1.867188,2.14844 l 19.90039,1.41797 -23.517578,2.79687 c -1.104955,0.13002 -1.894951,1.13154 -1.763672,2.23633 0.129835,1.10495 1.131545,1.89494 2.236328,1.76367 l 17.199219,-2.04296 -14.445312,3.9707 c -1.076199,0.29329 -1.708678,1.40576 -1.410157,2.48047 0.296754,1.06911 1.402791,1.69639 2.472657,1.40234 l 38.902343,-10.69922 c 19.296053,4.81909 23.082031,8.47266 23.082031,8.47266 10.30032,23.87437 14.94924,71.15071 -19.156249,97.71875 17.529993,24.60941 94.377419,-38.58001 124.580079,-32.41602 4.26975,0.87141 -4.30835,-18.20293 -1.02149,-21.32422 37.21913,9.46005 79.28454,4.66308 83.34766,-47.13281 l 54.65625,10.01563 c 25.77091,12.99496 75.86447,34.33835 97.27149,14.86914 4.89169,-5.09004 0.66723,-5.15864 -4.19532,-5.46289 -2.34901,-0.18104 -2.8808,0.92472 -4.65234,-0.55274 -0.78146,-0.18708 -1.77392,-0.89033 -2.36133,-0.36328 -1.67074,1.49874 -3.11217,1.7172 -4.11719,-0.64648 -0.34923,-0.82099 -2.01073,-1.05114 -2.61523,-0.41992 -1.85435,1.93628 -3.43353,1.86076 -4.67578,-0.76563 -0.20333,-0.42963 -1.28958,-0.33424 -1.85742,-0.29297 0.0218,0.52456 -2.50886,2.90933 -5.56641,-0.96875 -0.44916,-0.56969 -1.55286,-0.79953 -2.125,-0.37305 -1.42643,1.06326 -2.53788,2.01454 -4.95508,-0.88867 -0.42085,-0.50547 -1.37926,-0.70187 -1.92578,-0.35351 -1.11647,0.71168 -1.84388,1.80424 -4.00781,-0.75 -0.39742,-0.46912 -1.20464,-0.22923 -1.80078,-0.34375 -2.35529,0.85761 -2.86113,0.64912 -4.45703,-0.84961 -1.18587,-0.23358 -2.3272,-0.81908 -3.47266,-0.69141 -19.32306,2.15395 -37.18165,-10.29579 -34.66797,-10.76562 2.02838,-0.37917 16.31784,12.51044 39.65039,8.10937 0.84677,-0.15987 1.86552,1.04564 2.58594,0.51367 1.38516,-1.02285 2.7582,-1.4885 3.93945,0.79297 0.29745,0.5743 1.40742,0.80557 1.92578,0.39258 1.44458,-1.1509 2.91386,-2.25658 3.87696,0.79883 0.21656,0.68742 1.63495,0.98144 2.14257,0.44531 1.95716,-2.06691 3.55433,-1.7973 4.75977,1 0.27931,0.64777 1.64109,1.00695 2.0918,0.44531 2.29901,-2.86484 3.95276,-2.29253 5.08593,1.08985 0.28763,0.85806 2.15635,1.34184 2.6836,0.58008 2.62975,-3.79926 3.4727,-1.30947 4.40625,0.96093 0.27855,0.67782 1.82151,1.1358 2.16601,0.47461 2.33866,-2.86862 3.90616,-1.90208 4.49414,0.67578 14.44188,0.5565 23.47616,1.7528 10.44336,-15.07226 -6.07544,-7.84332 -16.29558,-8.62389 -31.67187,-10.05274 -11.46429,-1.06529 -47.39446,-0.57819 -58.38672,-1.96093 -9.90642,-9.32746 -7.80354,-25.35079 -17.79102,-34.77149 -23.53274,-22.06227 -54.31035,-44.9428 -63.16601,-45.62305 -0.18935,-0.0145 -0.37005,-0.0197 -0.53906,-0.0137 z m 144.28125,107.19922 c -0.004,-0.0948 -0.0801,-0.13592 -0.26368,-0.0605 -0.22506,0.0924 -0.0319,0.082 0.26368,0.0605 z M 209.67578,485.8457 a 1.2500882,1.2500882 0 0 0 -0.89453,0.33203 1.2500882,1.2500882 0 0 0 -0.0723,1.76563 l 15.41993,16.75 a 1.2500882,1.2500882 0 0 0 1.76367,0.0723 1.2500882,1.2500882 0 0 0 0.0742,-1.76367 l -7.72071,-8.38672 11.45703,8.09961 a 1.2500882,1.2500882 0 0 0 1.74219,-0.30273 1.2500882,1.2500882 0 0 0 -0.30273,-1.74219 l -9.92188,-7.01367 7.90625,3.5957 a 1.2500882,1.2500882 0 0 0 1.65235,-0.62109 1.2500882,1.2500882 0 0 0 -0.61914,-1.65234 l -19.91602,-9.0586 -0.0898,0.14844 a 1.2500882,1.2500882 0 0 0 -0.47852,-0.22266 z m 86.2207,2.61328 -0.15625,0.36914 a 1.2280819,1.2280819 0 0 0 -1.13671,0.0391 1.2280819,1.2280819 0 0 0 0.0586,1.74219 l 15.92383,14.94726 a 1.2280819,1.2280819 0 0 0 1.73437,-0.0508 1.2280819,1.2280819 0 0 0 -0.0508,-1.73438 l -8.77734,-8.24609 11.10937,6.28125 a 1.2280819,1.2280819 0 0 0 1.67578,-0.46484 1.2280819,1.2280819 0 0 0 -0.46484,-1.66797 l -10.88867,-6.15625 8.09765,2.25195 a 1.2280819,1.2280819 0 0 0 1.51368,-0.85742 1.2280819,1.2280819 0 0 0 -0.84961,-1.51367 z"
         transform="scale(0.26458333)" />
      <circle
         style="fill:#ffffff;stroke:none;stroke-width:0.264583;stroke-opacity:1"
         id="circle3203"
         cx="84.843773"
         cy="100.43058"
         r="4.0090604" />
      <circle
         style="fill:#cccccc;fill-opacity:1;stroke-width:0.0996717"
         id="path3121"
         cx="86.299126"
         cy="100.51295"
         r="1.5102623" />
      <text
         xml:space="preserve"
         style="font-style:normal;font-weight:normal;font-size:50.2251px;line-height:1.25;font-family:sans-serif;fill:#000000;fill-opacity:1;stroke:none;stroke-width:1.25563"
         x="143.49004"
         y="48.032677"
         id="text2691"
         transform="matrix(0.5170249,0.5873254,-0.9592653,0.84444507,0,0)"><tspan
           sodipodi:role="line"
           id="tspan2689"
           style="stroke-width:1.25563"
           x="143.49004"
           y="48.032677">}</tspan></text>
      <path
         id="path31057"
         style="fill:#cccccc;fill-opacity:1;stroke:none;stroke-width:0.264583px;stroke-linecap:butt;stroke-linejoin:miter;stroke-opacity:1"
         d="m 114.30593,111.23326 c 0.41779,1.9555 0.25197,3.7651 -0.15533,5.51433 0.80431,-1.75593 1.01931,-3.57734 0.89317,-5.43666 m -2.48534,-0.50484 c 0.41779,1.9555 0.25197,3.7651 -0.15533,5.51433 0.80431,-1.75593 1.01931,-3.57734 0.89317,-5.43666 m -2.60184,-0.38834 c 0.41779,1.9555 0.25197,3.7651 -0.15533,5.51433 0.80431,-1.75593 1.01931,-3.57734 0.89317,-5.43666 m -2.71834,-0.233 c 0.41779,1.9555 0.25197,3.7651 -0.15533,5.51433 0.80431,-1.75593 1.01931,-3.57734 0.89317,-5.43666 m -2.56301,-0.466 c 0.41779,1.9555 0.25197,3.7651 -0.15533,5.51433 0.80431,-1.75593 1.01931,-3.57734 0.89317,-5.43666 m -2.33,-0.31067 c 0.41779,1.9555 0.25197,3.7651 -0.15533,5.51433 0.80431,-1.75593 1.01931,-3.57734 0.89317,-5.43666 m -2.29118,-0.38834 c 0.41779,1.9555 0.25197,3.7651 -0.15533,5.51433 0.34172,-0.74603 0.57707,-1.50387 0.72507,-2.27142 0.20035,-1.03905 0.24065,-2.09587 0.1681,-3.16524"
         sodipodi:nodetypes="ccccccccccccccccccccsc" />
      <path
         id="path24414"
         style="fill:#cccccc;fill-opacity:1;stroke:none;stroke-width:0.264583px;stroke-linecap:butt;stroke-linejoin:miter;stroke-opacity:1"
         d="m 112.99734,115.73548 c 0.73982,-1.85774 0.87983,-3.66952 0.77166,-5.46228 0.49843,1.86595 0.40492,3.69762 -0.0312,5.50945 m -2.5348,0.0809 c 0.73982,-1.85774 0.87983,-3.66951 0.77165,-5.46227 0.49844,1.86594 0.40494,3.69761 -0.0312,5.50944 m -2.63012,-0.0535 c 0.73983,-1.85775 0.87983,-3.66952 0.77166,-5.46229 0.49844,1.86595 0.40493,3.69763 -0.0312,5.50946 m -2.71892,-0.22618 c 0.73983,-1.85774 0.87983,-3.66952 0.77166,-5.46229 0.49844,1.86595 0.40493,3.69762 -0.0312,5.50945 m -2.60487,0.0296 c 0.73983,-1.85773 0.87984,-3.66952 0.77166,-5.46228 0.49844,1.86595 0.40494,3.69762 -0.0312,5.50945 m -2.3491,-0.0845 c 0.73983,-1.85774 0.87983,-3.66952 0.77166,-5.46228 0.49843,1.86595 0.40493,3.69761 -0.0312,5.50944 m -2.32385,-10e-4 c 0.73983,-1.85775 0.87983,-3.66953 0.77166,-5.46229 0.21179,0.79277 0.31667,1.57935 0.33387,2.36085 0.0233,1.05793 -0.11425,2.10654 -0.36512,3.1486"
         sodipodi:nodetypes="ccccccccccccccccccccsc" />
      <g
         id="g2921"
         transform="rotate(43.126791,931.94369,-1275.1328)">
        <path
           style="fill:#badffd;stroke-width:0.0271801"
           inkscape:connector-curvature="0"
           id="path1000"
           d="m 1288.5102,296.88419 c 0.016,-0.0119 0.5621,-0.46279 1.2766,-0.75728 0.3107,-0.12545 0.6331,-0.22216 0.9636,-0.28402 1.93,-0.36663 3.7141,0.65012 4.8148,2.19493 0.8453,1.18644 1.3838,2.61817 1.9065,3.96613 0.2845,0.7338 0.4788,1.57535 1.1129,2.09951 -0.2095,-0.17321 -1.0213,-0.84581 -1.1692,-1.07705 -0.1474,-0.23206 -2.7123,-7.40523 -6.5044,-6.44655 -0.2745,0.0693 -0.5422,0.16821 -0.798,0.29072 -0.1278,0.0615 -0.2526,0.12883 -0.3732,0.20146 -0.06,0.0366 -0.1191,0.0741 -0.1763,0.11295 -0.028,0.0195 -0.056,0.0391 -0.083,0.0588 l -0.039,0.0294 -0.018,0.0143 c 0,0.004 -0.013,0.0104 -0.012,0.0103 z" />
        <path
           style="fill:#badffd;stroke-width:0.0271801"
           inkscape:connector-curvature="0"
           id="path1002"
           d="m 1295.9658,304.8966 c -0.2064,0.0163 -0.4134,0.0126 -0.6197,0.001 -0.2065,-0.011 -0.4126,-0.0331 -0.6179,-0.0619 -0.4104,-0.0599 -0.8174,-0.15432 -1.2171,-0.28238 -0.3987,-0.12993 -0.7909,-0.2934 -1.1634,-0.50381 -0.1877,-0.10227 -0.3674,-0.22163 -0.544,-0.34612 -0.1731,-0.13033 -0.3437,-0.26548 -0.4999,-0.41981 -0.081,-0.0741 -0.1535,-0.15693 -0.2289,-0.237 l -0.028,-0.0306 -0.026,-0.032 -0.053,-0.0641 -0.052,-0.0643 c -0.017,-0.0214 -0.035,-0.0424 -0.051,-0.0654 l -0.096,-0.13548 c -0.016,-0.0221 -0.033,-0.0463 -0.047,-0.0668 l -0.042,-0.0625 -0.1657,-0.25094 -0.6672,-1.00236 c -0.2236,-0.33412 -0.4489,-0.66752 -0.6762,-1.00216 l -0.085,-0.12586 c -0.028,-0.0418 -0.058,-0.0828 -0.086,-0.12508 l -0.1714,-0.25184 -0.348,-0.506 c 0.1751,0.11098 0.3381,0.23752 0.4983,0.36728 0.1595,0.13068 0.3145,0.2664 0.4651,0.40655 0.3014,0.28031 0.5862,0.57745 0.859,0.88421 0.2741,0.30623 0.5307,0.62643 0.7794,0.95287 l 0.1832,0.24697 0.046,0.0621 c 0.015,0.0211 0.029,0.037 0.043,0.0561 l 0.084,0.10946 c 0.027,0.0366 0.06,0.0704 0.089,0.10592 l 0.045,0.0526 0.022,0.0264 0.024,0.025 c 0.064,0.067 0.1255,0.13613 0.1949,0.19895 0.034,0.0322 0.067,0.0652 0.101,0.0968 l 0.106,0.0924 0.053,0.0465 0.055,0.0442 0.1102,0.0889 c 0.1511,0.1141 0.3047,0.22657 0.4669,0.32905 0.3215,0.20938 0.665,0.39355 1.0183,0.5654 0.3543,0.17058 0.7207,0.32473 1.0946,0.46956 0.3749,0.14416 0.7565,0.27821 1.1479,0.40762 z" />
        <path
           style="fill:#226654;stroke-width:0.102728"
           d="m 318.90039,47.091797 c -0.0942,0.245062 -0.18029,0.504149 -0.27734,0.744141 a 1.5031904,1.5031904 0 0 1 0.98437,0.126953 c -0.24744,-0.286209 -0.48085,-0.577262 -0.70703,-0.871094 z m 4.89258,7.712891 c -0.65969,1.001967 -1.31996,2.002203 -1.98438,2.988281 0.0586,0.03569 0.11799,0.0717 0.17774,0.107422 0.63116,-1.01238 1.23819,-2.040491 1.80664,-3.095703 z m 4.81836,0.923828 c -0.26242,1.646096 -0.60271,3.294545 -1.05664,4.947265 0.23744,0.102102 0.49043,0.203141 0.73242,0.304688 0.94088,-1.521083 1.78522,-3.094476 2.55469,-4.708985 -0.16925,-0.09144 -0.3395,-0.180853 -0.50782,-0.273437 a 1.5031904,1.5031904 0 0 1 -1.72265,-0.269531 z m 7.73242,3.292968 c -0.24564,1.52694 -0.57813,3.079502 -0.99609,4.65625 6.57086,2.346518 12.9223,4.270019 14.60742,5.019532 3.80069,1.691225 9.71995,13.193339 26.74219,18.755859 0,0 -14.97277,-7.840366 -23.55079,-20.070313 -1.46653,-2.091652 -8.93814,-4.702943 -16.80273,-8.361328 z"
           transform="matrix(0.26458333,0,0,0.26458333,1198.2966,281.63854)"
           id="path1004"
           inkscape:connector-curvature="0" />
        <path
           style="fill:#40907a;stroke-width:0.0271801"
           inkscape:connector-curvature="0"
           id="path1006"
           d="m 1290.9437,295.11292 c 0.028,0.36352 0.025,0.70153 0,1.01588 -0.081,0.92934 -0.3824,1.64904 -0.7541,2.19857 -0.2322,0.34263 -0.4919,0.61903 -0.7436,0.8386 -0.023,0.0197 -0.046,0.0393 -0.068,0.0583 -0.1629,0.13683 -0.3278,0.25535 -0.4882,0.35763 -0.5124,0.32795 -1.004,0.50119 -1.2256,0.56696 -0.1217,-0.31733 -0.1709,-0.68922 -0.3003,-1.05512 0,-0.001 0.2786,-0.0587 0.6926,-0.28194 0.2054,-0.11057 0.4332,-0.25706 0.655,-0.44786 0.1441,-0.12381 0.2752,-0.25662 0.3927,-0.39797 0.3184,-0.3823 0.5389,-0.82803 0.6611,-1.33467 0.084,-0.34638 0.1212,-0.72084 0.1124,-1.12318 0.482,-0.33334 1.0686,-0.39521 1.0686,-0.39521 z" />
        <path
           style="fill:#96ce58;stroke-width:0.0271801"
           inkscape:connector-curvature="0"
           id="path1008"
           d="m 1292.6867,294.8398 v 0 c 0.4065,-0.0153 0.7867,0.0212 1.1429,0.10453 -0.1286,0.2785 -0.3377,0.7704 -0.5801,1.48888 -0.1701,0.50315 -0.3563,1.11761 -0.5431,1.84782 -0.1329,0.51987 -0.3808,1.00688 -0.7362,1.4518 -0.1148,0.14375 -0.2408,0.28327 -0.3778,0.41796 -0.3934,0.38707 -0.8771,0.73577 -1.4446,1.03851 -0.045,0.0242 -0.091,0.0481 -0.1372,0.0716 -0.7308,0.37178 -1.4175,0.58224 -1.7843,0.67936 -0.1309,-0.30592 -0.2617,-0.64475 -0.395,-1.02166 0.2442,-0.0601 0.9088,-0.24232 1.622,-0.59539 0.3929,-0.19431 0.8006,-0.44056 1.1605,-0.74707 0.2175,-0.1849 0.4174,-0.39167 0.5865,-0.62189 0.2043,-0.27885 0.3632,-0.59159 0.4529,-0.94252 0.1838,-0.71872 0.3672,-1.33144 0.5377,-1.84298 0.1872,-0.56283 0.3586,-1.00361 0.4958,-1.3289 z" />
        <path
           style="fill:#f7c545;stroke-width:0.0271801"
           inkscape:connector-curvature="0"
           id="path1010"
           d="m 1294.5562,295.19282 c 0.4225,0.19419 0.8059,0.46451 1.1536,0.80097 -0.1145,0.33559 -0.2949,0.92415 -0.5267,1.8746 -0.087,0.35843 -0.1819,0.76822 -0.283,1.23556 -0.216,0.99804 -0.6026,1.78304 -1.0712,2.41363 -0.154,0.20695 -0.3166,0.39743 -0.485,0.57298 -0.4765,0.49778 -0.9987,0.87853 -1.4949,1.1889 -0.3204,0.20056 -0.6296,0.37183 -0.9092,0.52649 -0.3864,0.21392 -0.7553,0.41802 -0.961,0.59866 -0.347,-0.2606 -0.6558,-0.57046 -0.9457,-0.97632 0.3242,-0.29974 0.7598,-0.54103 1.2487,-0.81135 0.208,-0.11514 0.4241,-0.23481 0.6427,-0.3649 0.5152,-0.30643 1.042,-0.67027 1.4977,-1.16506 0.1427,-0.15463 0.2781,-0.32247 0.4045,-0.5051 l 2e-4,-1e-4 c 0.3271,-0.47406 0.5901,-1.04905 0.745,-1.76524 0.1738,-0.80428 0.3302,-1.44907 0.4663,-1.96261 0.2446,-0.92514 0.423,-1.42439 0.518,-1.66111 z" />
        <path
           style="fill:#f19934;stroke-width:0.0271801"
           inkscape:connector-curvature="0"
           id="path1012"
           d="m 1296.6787,297.23662 v 0 l -0.057,-0.0856 c -0.1048,0.71204 -0.2884,1.41481 -0.549,2.10223 -0.185,0.48963 -0.4095,0.97139 -0.6721,1.4427 -0.2686,0.48233 -0.5772,0.95467 -0.9231,1.41358 -0.1511,0.20046 -0.3092,0.39796 -0.4743,0.59301 -0.1733,0.20432 -0.3542,0.40529 -0.5423,0.60305 -0.2219,0.2332 -0.4343,0.43772 -0.6342,0.61658 -1.0052,0.89793 -1.6963,1.14902 -1.6963,1.14902 0,0 0.8941,0.57013 1.4002,0.53909 0,0 0.3373,-0.11377 1.5145,-1.16639 0.073,-0.0744 0.1502,-0.15336 0.2305,-0.23733 0.2422,-0.2533 0.4734,-0.51203 0.693,-0.77599 0.1403,-0.1687 0.276,-0.33956 0.4068,-0.51225 0.3805,-0.50172 0.7202,-1.01921 1.0164,-1.54877 0.1347,-0.24101 0.2562,-0.50042 0.3644,-0.762 0.3151,-0.76194 0.5185,-1.54371 0.6137,-1.95189 l -2e-4,-2.5e-4 z" />
        <path
           style="fill:#95c5e5;stroke-width:0.0271801"
           inkscape:connector-curvature="0"
           id="path1014"
           d="m 1298.331,301.10881 c 0.2457,0.56633 0.4844,1.06974 0.7146,1.51756 -0.3462,0.16212 -0.7058,0.41236 -1.0712,0.74407 -0.3112,0.28204 -0.6261,0.62291 -0.9407,1.01804 -0.01,0.008 -0.012,0.0153 -0.018,0.0232 -0.1077,0.1361 -0.2153,0.27866 -0.3228,0.42732 -0.3881,0.53774 -0.6903,1.04419 -0.875,1.37346 0,0 -0.9918,-0.0889 -1.4223,-0.22188 0,0 0.4036,-0.53916 0.913,-1.2042 0.1965,-0.25651 0.4093,-0.53327 0.6226,-0.80878 0.087,-0.1119 0.1734,-0.22345 0.2591,-0.33373 0.5562,-0.71318 1.0693,-1.35565 1.2442,-1.52829 4e-4,-4.6e-4 8e-4,-9.2e-4 0,-0.001 0.3339,-0.32962 0.612,-0.72266 0.8955,-1.00561 z" />
        <path
           style="fill:#0877bd;stroke-width:0.0271801"
           inkscape:connector-curvature="0"
           id="path1016"
           d="m 1296.7669,306.27238 c 0.4418,-1.05143 1.2147,-1.7419 1.8402,-2.1573 0.5477,-0.36365 0.9821,-0.51655 0.9821,-0.51655 l 0.653,0.93941 c -0.019,0.008 -1.2636,-6.9e-4 -2.279,1.77314 z" />
        <polygon
           style="fill:#095a98"
           id="polygon1018"
           points="153.33,629.34 213.74,595.89 201.77,541.7 "
           transform="matrix(-0.01035828,-0.02512894,0.02512894,-0.01035828,1288.0207,316.58787)" />
      </g>
      <path
         style="color:#000000;fill:#ffffff;-inkscape-stroke:none"
         d="m 71.212891,119.88695 c 0,0 -3.352109,2.14054 -4.962891,2.40625 -1.610782,0.26572 -3.273975,0.16382 -5.166016,0.20313 l 0.01758,0.86523 c 1.848483,-0.0384 3.551212,0.0718 5.289063,-0.21484 1.510215,-0.24913 4.649756,-2.01495 4.649756,-2.01495 z"
         id="path47572"
         sodipodi:nodetypes="csccccc" />
    </g>
  </g>
</svg>
